<?xml version="1.0" encoding="utf-8"?>
<!-- Generator: Adobe Illustrator 16.0.0, SVG Export Plug-In . SVG Version: 6.00 Build 0)  -->
<!DOCTYPE svg PUBLIC "-//W3C//DTD SVG 1.1//EN" "http://www.w3.org/Graphics/SVG/1.1/DTD/svg11.dtd">
<svg version="1.1" id="Layer_1" xmlns="http://www.w3.org/2000/svg" xmlns:xlink="http://www.w3.org/1999/xlink" x="0px" y="0px"
	 width="96.786px" height="88.361px" viewBox="0 0 96.786 88.361" enable-background="new 0 0 96.786 88.361" xml:space="preserve">
<path fill="#FFFFFF" d="M48.406,0L48.406,0c-0.001,0-0.008,0-0.014,0h-0.014C27.617,0.285,11.774,7.198,0,15.933v56.496
	c11.774,8.734,27.617,15.646,48.379,15.932v0.001c0.005,0,0.009-0.001,0.009-0.001l0.018,0.001V88.36
	c20.764-0.285,36.605-7.198,48.381-15.933V15.933C85.012,7.198,69.169,0.285,48.406,0 M40.82,13.92
	c0.096-2.01,0.631-3.082,0.92-3.512h0.001c0.283,0.421,0.803,1.454,0.915,3.383c1.588-0.101,3.197-0.17,4.832-0.206
	c0.135-1.8,0.631-2.771,0.904-3.177c0.274,0.406,0.771,1.377,0.905,3.177c1.634,0.036,3.244,0.106,4.831,0.206
	c0.112-1.929,0.632-2.962,0.916-3.383c0.29,0.43,0.825,1.502,0.921,3.512c6.403,0.51,12.423,1.529,18.069,2.971
	c-5.861-0.728-11.891-1.238-18.087-1.52c-0.138,1.786-0.63,2.751-0.903,3.156c-0.275-0.411-0.781-1.395-0.91-3.232
	c-1.598-0.06-3.207-0.105-4.827-0.134c-0.113,1.918-0.632,2.946-0.915,3.366c-0.282-0.42-0.801-1.448-0.914-3.366
	c-1.621,0.029-3.23,0.074-4.827,0.134c-0.13,1.837-0.635,2.821-0.91,3.232H41.74c-0.272-0.405-0.766-1.371-0.902-3.156
	c-6.197,0.281-12.227,0.792-18.087,1.52C28.396,15.449,34.417,14.429,40.82,13.92 M33.962,36.19h-9.419v20.408h9.419v6.623
	l-0.294,0.294H23.317c-5.643,0-7.408-2.305-7.408-7.457V36.632c0-4.366,1.227-7.359,7.015-7.359h10.695l0.343,0.344V36.19z
	 M55.339,80.021c-1.302,0.392-3.414,0.758-6.758,0.758c-3.585,0-5.858-0.396-7.163-0.742l0.623-0.327l-0.675-2.743l2.19,0.458
	l0.582-1.351l2.036,2.327c0,0-0.745-4.432-0.788-4.507c0.051,0.04,1.536,0.799,1.536,0.799l1.47-2.991l1.471,2.991
	c0,0,1.485-0.759,1.536-0.799c-0.043,0.075-0.788,4.507-0.788,4.507l2.035-2.327l0.582,1.351l2.191-0.458l-0.675,2.743
	L55.339,80.021z M58,36.337h-9.811v6.77h8.78v6.917h-8.78v13.345h-8.635V29.42H58V36.337z M82.038,63.368H63.593V29.42h8.634v27.031
	h9.812V63.368z"/>
</svg>
