<?xml version="1.0" encoding="utf-8"?>
<!-- Generator: Adobe Illustrator 16.0.0, SVG Export Plug-In . SVG Version: 6.00 Build 0)  -->
<!DOCTYPE svg PUBLIC "-//W3C//DTD SVG 1.1//EN" "http://www.w3.org/Graphics/SVG/1.1/DTD/svg11.dtd">
<svg version="1.1" id="Layer_1" xmlns="http://www.w3.org/2000/svg" xmlns:xlink="http://www.w3.org/1999/xlink" x="0px" y="0px"
	 width="202.603px" height="39.245px" viewBox="0 0 202.603 39.245" enable-background="new 0 0 202.603 39.245"
	 xml:space="preserve">
<path fill="#FFFFFF" d="M188.238,31.866V21.772h13.28v-5.979h-13.391V7.396h13.646V1.469h-22.31v36.376h23.138v-5.979H188.238z
	 M167.778,6.442h-8.855v31.404h19.04v-5.073h-10.185V6.442z M127.102,37.846h8.853V6.442h-8.853V37.846z M147.692,6.442
	l-8.673,11.431c-1.156,1.468-1.731,2.091-2.046,2.979c-0.224,0.531-0.268,0.98-0.268,1.246c0,1.2,0.49,1.911,1.691,3.69
	l8.093,12.057h10.457l-11.745-16.591l11.835-14.813H147.692z M100.455,10.066c-4.953,4.496-5.401,9.945-5.401,12.4
	c0,7.129,4.086,11.078,6.22,12.669c4.674,3.587,9.898,3.63,11.854,3.63c4.585,0,8.353-1.138,9.896-1.635
	c0.684-0.226,1.318-0.5,1.953-0.771v-8.946c-1.091,1.409-1.497,1.907-2.18,2.543c-3.271,3.314-6.451,4.043-8.406,4.043
	c-2.534,0-4.443-1.18-5.173-1.683c-4.403-3.041-4.632-8.9-4.632-10.213c0-3.183,1-7.133,3.408-9.542
	c2.314-2.311,5.491-2.541,6.539-2.541c1.677,0,5.131,0.457,8.264,3.636c0.953,0.995,1.948,2.406,2.18,2.677V7.746
	c-1.682-0.675-6.176-2.404-11.534-2.404C111.172,5.342,105.405,5.525,100.455,10.066 M82.59,6.442c-4.093,0-6.005-0.046-7.696,1.378
	c-0.71,0.621-1.2,1.243-1.914,2.89c-0.487,1.021-0.891,2.092-1.291,3.202L64.545,34.02c-2.126-4.262-5.269-10.563-5.278-10.578
	c1.025-1.024,2.264-2.058,3.109-3.214c1.42-1.865,1.555-3.737,1.555-4.668c-0.047-2.714-1.286-4.492-1.914-5.295
	c-2.98-3.646-7.69-3.735-8.984-3.779c-1.067-0.043-2.134-0.043-3.244-0.043H37.152v31.404h8.721V10.934
	c1.558-0.714,2.578-0.847,3.425-0.847c2.401,0,4.668,1.29,5.692,3.602c0.134,0.403,0.443,1.157,0.443,2.228
	c0,1.733-0.71,2.981-1.821,4.225c-0.799,0.848-2.268,2.09-2.76,3.113c-0.177,0.398-0.265,0.892-0.265,1.333
	c0,1.068,0.358,1.826,1.202,3.648l2.756,6.007c0.578,1.111,1.202,2.354,2.314,2.98c0.845,0.484,1.777,0.578,3.688,0.622H70.89
	l3.424-9.922h10.9l3.422,9.922h8.854L86.636,6.442H82.59z M75.961,23.033L79.917,11.6l3.65,11.433H75.961z M6.345,5.547
	C0.532,10.827,0,17.217,0,20.101c0,8.371,4.795,13.012,7.302,14.881c5.493,4.205,11.625,4.264,13.918,4.264
	c5.383,0,9.812-1.335,11.623-1.924c0.8-0.266,1.547-0.583,2.293-0.906V25.914c-1.279,1.653-1.761,2.239-2.559,2.982
	c-3.838,3.894-7.573,4.753-9.865,4.753c-2.986,0-5.227-1.392-6.078-1.979c-5.17-3.57-5.438-10.449-5.438-11.992
	c0-3.732,1.172-8.373,3.998-11.199c2.72-2.718,6.455-2.987,7.677-2.987c1.973,0,6.025,0.536,9.707,4.266
	c1.118,1.173,2.292,2.832,2.559,3.146V2.83C33.161,2.028,27.882,0,21.592,0C18.927,0,12.153,0.215,6.345,5.547"/>
</svg>
