<?xml version="1.0" encoding="utf-8"?>
<!-- Generator: Adobe Illustrator 16.0.0, SVG Export Plug-In . SVG Version: 6.00 Build 0)  -->
<!DOCTYPE svg PUBLIC "-//W3C//DTD SVG 1.1//EN" "http://www.w3.org/Graphics/SVG/1.1/DTD/svg11.dtd">
<svg version="1.1" xmlns="http://www.w3.org/2000/svg" xmlns:xlink="http://www.w3.org/1999/xlink" x="0px" y="0px"
	 width="133.459px" height="69.067px" viewBox="0 0 133.459 69.067" enable-background="new 0 0 133.459 69.067"
	 xml:space="preserve">
<g id="Layer_2">
</g>
<g id="Layer_1">
	<path fill="#FFFFFF" d="M11.674,6.933c3.742,0,7.244,0.083,10.415,0.248c5.28,0.271,9.529,0.758,12.631,1.45
		c1.288,0.341,2.564,0.76,3.798,1.246c10.916,4.295,17.176,13.329,17.176,24.785c0,11.48-6.282,20.523-17.248,24.814
		c-1.14,0.449-2.365,0.851-3.642,1.195c-3.092,0.701-7.372,1.196-12.724,1.473c-3.167,0.164-6.669,0.248-10.409,0.248
		c-1.707,0-3.307-0.018-4.738-0.044V6.976C8.364,6.95,9.966,6.933,11.674,6.933 M95.447,14.735l26.248,47.4H69.346L95.447,14.735
		 M11.674,0C5.024,0,0,0.257,0,0.257v68.811c0,0,5.023,0.258,11.671,0.258c3.324,0,7.054-0.065,10.768-0.258
		c5.071-0.263,10.112-0.763,14.035-1.667c1.57-0.418,3.076-0.908,4.509-1.473c13.92-5.447,21.644-17.396,21.644-31.266
		c0-13.845-7.7-25.78-21.571-31.237C39.564,2.837,38,2.322,36.363,1.895c-3.904-0.885-8.897-1.381-13.919-1.638
		C18.731,0.064,14.999,0,11.674,0 M95.43,0.393L57.615,69.067h75.844L95.43,0.393z"/>
</g>
</svg>
