<?xml version="1.0" encoding="utf-8"?>
<!-- Generator: Adobe Illustrator 16.0.0, SVG Export Plug-In . SVG Version: 6.00 Build 0)  -->
<!DOCTYPE svg PUBLIC "-//W3C//DTD SVG 1.1//EN" "http://www.w3.org/Graphics/SVG/1.1/DTD/svg11.dtd">
<svg version="1.1" id="Layer_1" xmlns="http://www.w3.org/2000/svg" xmlns:xlink="http://www.w3.org/1999/xlink" x="0px" y="0px"
	 width="30px" height="30px" viewBox="0 0 30 30" enable-background="new 0 0 30 30" xml:space="preserve">
<g>
	<g>
		<path fill="#FFFFFF" d="M9.093,2.319C5.19,4.16,2.279,7.769,1.374,12.117c1.215,0.008,6.688-0.08,12.858-1.729
			C12.037,6.46,9.67,3.126,9.093,2.319z M15.988,15.142c0.182-0.065,0.375-0.117,0.556-0.169c-0.349-0.805-0.735-1.61-1.149-2.402
			c-6.586,1.978-12.99,2.028-14.31,2.015c-0.006,0.139-0.008,0.279-0.008,0.42c0,3.583,1.337,6.848,3.54,9.325
			C5.345,23.15,9.175,17.367,15.988,15.142z M17.409,17.35c-7.42,2.602-10.403,7.59-10.987,8.682C8.786,27.891,11.763,29,15.001,29
			c1.944,0,3.793-0.4,5.473-1.125c-0.254-1.463-1.093-5.629-2.975-10.551C17.474,17.336,17.435,17.35,17.409,17.35z M24.262,4.541
			C21.803,2.338,18.56,1,15.001,1c-1.104,0-2.178,0.128-3.208,0.374c0.619,0.843,3.004,4.166,5.164,8.158
			C21.595,7.781,23.755,5.211,24.262,4.541z M20.133,16.66c1.734,4.783,2.5,8.74,2.705,9.912c3.098-2.125,5.297-5.475,5.912-9.354
			C27.83,16.943,24.212,16.016,20.133,16.66z M18.984,13.7c0.104,0.247,0.206,0.493,0.31,0.727c4.314-0.548,8.599,0.217,9.629,0.416
			c-0.032-3.282-1.19-6.293-3.104-8.662c-0.559,0.714-2.941,3.481-7.776,5.467C18.364,12.324,18.688,13.012,18.984,13.7z"/>
	</g>
</g>
</svg>
