<?xml version="1.0" encoding="utf-8"?>
<!-- Generator: Adobe Illustrator 16.0.0, SVG Export Plug-In . SVG Version: 6.00 Build 0)  -->
<!DOCTYPE svg PUBLIC "-//W3C//DTD SVG 1.1//EN" "http://www.w3.org/Graphics/SVG/1.1/DTD/svg11.dtd">
<svg version="1.1" id="Layer_1" xmlns="http://www.w3.org/2000/svg" xmlns:xlink="http://www.w3.org/1999/xlink" x="0px" y="0px"
	 width="30px" height="30px" viewBox="0 0 30 30" enable-background="new 0 0 30 30" xml:space="preserve">
<g display="none">
	<g display="inline">
		<path fill="#FFFFFF" d="M9.093,2.319C5.19,4.16,2.279,7.769,1.374,12.117c1.215,0.008,6.688-0.08,12.858-1.729
			C12.037,6.46,9.67,3.126,9.093,2.319z M15.988,15.142c0.182-0.065,0.375-0.117,0.556-0.169c-0.349-0.805-0.735-1.61-1.149-2.402
			c-6.586,1.978-12.99,2.028-14.31,2.015c-0.006,0.139-0.008,0.279-0.008,0.42c0,3.583,1.337,6.848,3.54,9.325
			C5.345,23.15,9.175,17.367,15.988,15.142z M17.409,17.35c-7.42,2.602-10.403,7.59-10.987,8.682C8.786,27.891,11.763,29,15.001,29
			c1.944,0,3.793-0.4,5.473-1.125c-0.254-1.463-1.093-5.629-2.975-10.551C17.474,17.336,17.435,17.35,17.409,17.35z M24.262,4.541
			C21.803,2.338,18.56,1,15.001,1c-1.104,0-2.178,0.128-3.208,0.374c0.619,0.843,3.004,4.166,5.164,8.158
			C21.595,7.781,23.755,5.211,24.262,4.541z M20.133,16.66c1.734,4.783,2.5,8.74,2.705,9.912c3.098-2.125,5.297-5.475,5.912-9.354
			C27.83,16.943,24.212,16.016,20.133,16.66z M18.984,13.7c0.104,0.247,0.206,0.493,0.31,0.727c4.314-0.548,8.599,0.217,9.629,0.416
			c-0.032-3.282-1.19-6.293-3.104-8.662c-0.559,0.714-2.941,3.481-7.776,5.467C18.364,12.324,18.688,13.012,18.984,13.7z"/>
	</g>
</g>
<g>
	<g>
		<path fill="#FFFFFF" d="M20.645,1H9.354C5.034,1,1.5,4.568,1.5,8.928v12.144C1.5,25.432,5.034,29,9.354,29h11.29
			c4.32,0,7.855-3.568,7.855-7.928V8.928C28.5,4.568,24.965,1,20.645,1z M26.424,21.072c0,1.549-0.604,3.012-1.699,4.117
			c-1.096,1.106-2.545,1.716-4.08,1.716H9.354c-1.535,0-2.983-0.609-4.079-1.716c-1.097-1.105-1.7-2.568-1.7-4.117V8.928
			c0-1.549,0.604-3.012,1.7-4.118c1.096-1.106,2.544-1.715,4.079-1.715h11.29c1.535,0,2.984,0.609,4.08,1.715
			c1.096,1.106,1.699,2.568,1.699,4.118V21.072z M15.042,7.387c-4.106,0-7.436,3.36-7.436,7.505c0,4.145,3.329,7.504,7.436,7.504
			c4.105,0,7.435-3.359,7.435-7.504C22.477,10.747,19.147,7.387,15.042,7.387z M15.006,19.813c-2.688,0-4.869-2.201-4.869-4.914
			c0-2.714,2.181-4.915,4.869-4.915s4.868,2.2,4.868,4.915C19.874,17.611,17.694,19.813,15.006,19.813z M22.596,5.494
			c-0.972,0-1.76,0.795-1.76,1.777s0.788,1.777,1.76,1.777c0.973,0,1.761-0.796,1.761-1.777S23.568,5.494,22.596,5.494z"/>
	</g>
</g>
</svg>
