<?xml version="1.0" encoding="utf-8"?>
<!-- Generator: Adobe Illustrator 16.0.0, SVG Export Plug-In . SVG Version: 6.00 Build 0)  -->
<!DOCTYPE svg PUBLIC "-//W3C//DTD SVG 1.1//EN" "http://www.w3.org/Graphics/SVG/1.1/DTD/svg11.dtd">
<svg version="1.1" id="Layer_1" xmlns="http://www.w3.org/2000/svg" xmlns:xlink="http://www.w3.org/1999/xlink" x="0px" y="0px"
	 width="30px" height="30px" viewBox="0 0 30 30" enable-background="new 0 0 30 30" xml:space="preserve">
<path fill="#FFFFFF" d="M26.864,0.999H3.136C2,0.999,1.078,1.898,1.078,3.008v23.988c0,1.109,0.922,2.005,2.058,2.005h23.729
	c1.136,0,2.058-0.896,2.058-2.005V3.008C28.922,1.898,28,0.999,26.864,0.999z M9.52,24.439H5.315V11.796H9.52V24.439z M7.417,10.07
	H7.388c-1.411,0-2.322-0.97-2.322-2.185c0-1.241,0.94-2.186,2.381-2.186c1.437,0,2.322,0.944,2.349,2.186
	C9.795,9.1,8.883,10.07,7.417,10.07z M24.685,24.439h-4.207v-6.764c0-1.701-0.606-2.857-2.128-2.857
	c-1.165,0-1.855,0.782-2.161,1.535c-0.11,0.271-0.136,0.65-0.136,1.024v7.062h-4.207c0,0,0.055-11.458,0-12.644h4.207v1.788
	c0.559-0.859,1.559-2.086,3.789-2.086c2.768,0,4.843,1.807,4.843,5.692V24.439z M16.053,13.628v-0.044
	c-0.011,0.015-0.019,0.03-0.029,0.044H16.053z"/>
</svg>
