<?xml version="1.0" encoding="utf-8"?>
<!-- Generator: Adobe Illustrator 16.0.0, SVG Export Plug-In . SVG Version: 6.00 Build 0)  -->
<!DOCTYPE svg PUBLIC "-//W3C//DTD SVG 1.1//EN" "http://www.w3.org/Graphics/SVG/1.1/DTD/svg11.dtd">
<svg version="1.1" id="Layer_1" xmlns="http://www.w3.org/2000/svg" xmlns:xlink="http://www.w3.org/1999/xlink" x="0px" y="0px"
	 width="42px" height="30px" viewBox="0 0 42 30" enable-background="new 0 0 42 30" xml:space="preserve">
<g display="none">
	<g display="inline">
		<path fill="#FFFFFF" d="M26.645,1h-11.29C11.034,1,7.5,4.568,7.5,8.928v12.144C7.5,25.432,11.034,29,15.354,29h11.29
			c4.32,0,7.855-3.568,7.855-7.928V8.928C34.5,4.568,30.965,1,26.645,1z M32.424,21.072c0,1.549-0.604,3.012-1.699,4.117
			c-1.096,1.106-2.545,1.716-4.08,1.716h-11.29c-1.535,0-2.983-0.609-4.079-1.716c-1.097-1.105-1.7-2.568-1.7-4.117V8.928
			c0-1.549,0.604-3.012,1.7-4.118c1.096-1.106,2.544-1.715,4.079-1.715h11.29c1.535,0,2.984,0.609,4.08,1.715
			c1.096,1.106,1.699,2.568,1.699,4.118V21.072z M21.042,7.387c-4.106,0-7.436,3.36-7.436,7.505c0,4.145,3.329,7.504,7.436,7.504
			c4.105,0,7.435-3.359,7.435-7.504C28.477,10.747,25.147,7.387,21.042,7.387z M21.006,19.813c-2.688,0-4.869-2.201-4.869-4.914
			c0-2.714,2.181-4.915,4.869-4.915s4.868,2.2,4.868,4.915C25.874,17.611,23.694,19.813,21.006,19.813z M28.596,5.494
			c-0.972,0-1.76,0.795-1.76,1.777s0.788,1.777,1.76,1.777c0.973,0,1.761-0.796,1.761-1.777S29.568,5.494,28.596,5.494z"/>
	</g>
</g>
<path display="none" fill="#FFFFFF" d="M38,4.314c-1.251,0.563-2.596,0.942-4.006,1.113c1.439-0.875,2.546-2.26,3.066-3.91
	c-1.348,0.81-2.841,1.398-4.43,1.715C31.358,1.859,29.546,1,27.539,1c-3.852,0-6.975,3.165-6.975,7.068
	c0,0.555,0.062,1.094,0.18,1.611C14.947,9.385,9.808,6.57,6.367,2.295C5.767,3.338,5.423,4.553,5.423,5.848
	c0,2.453,1.231,4.615,3.103,5.883c-1.144-0.036-2.219-0.354-3.159-0.883c-0.001,0.029-0.001,0.059-0.001,0.088
	c0,3.426,2.404,6.281,5.596,6.932c-0.585,0.161-1.201,0.248-1.838,0.248c-0.449,0-0.886-0.045-1.313-0.127
	c0.888,2.808,3.464,4.852,6.517,4.908c-2.388,1.896-5.396,3.025-8.663,3.025c-0.563,0-1.118-0.033-1.664-0.098
	C7.087,27.83,10.754,29,14.692,29c12.831,0,19.847-10.771,19.847-20.111c0-0.307-0.006-0.611-0.02-0.915
	C35.882,6.977,37.064,5.732,38,4.314z"/>
<g>
	<g>
		<path fill="#FFFFFF" d="M21,23.114l-7.66-5.328L1.722,25.288v2.635h38.557v-2.635l-11.617-7.502L21,23.114z M1.722,9.706v12.025
			l8.965-5.79L1.722,9.706z M1.722,2.077v4.004l11.639,8.134l2.645,1.85L21,19.556l4.996-3.491l2.645-1.85l11.638-8.134V2.077H1.722
			z M40.278,21.731V9.706l-8.965,6.235L40.278,21.731z"/>
	</g>
</g>
</svg>
