<?xml version="1.0" encoding="utf-8"?>
<!-- Generator: Adobe Illustrator 16.0.0, SVG Export Plug-In . SVG Version: 6.00 Build 0)  -->
<!DOCTYPE svg PUBLIC "-//W3C//DTD SVG 1.1//EN" "http://www.w3.org/Graphics/SVG/1.1/DTD/svg11.dtd">
<svg version="1.1" id="Layer_1" xmlns="http://www.w3.org/2000/svg" xmlns:xlink="http://www.w3.org/1999/xlink" x="0px" y="0px"
	 width="157.127px" height="63.304px" viewBox="0 0 157.127 63.304" enable-background="new 0 0 157.127 63.304"
	 xml:space="preserve">
<path fill="#FFFFFF" d="M0,0.375h43.924v62.928H0V0.375z M37.565,6.712H6.328v50.251h31.237V6.712z"/>
<path fill="#FFFFFF" d="M68.211,17.668H66.11c-2.754-3.999-5.504-7.965-8.222-12.456h-0.036v12.456H55.53V0.3h2.115
	c2.754,3.966,5.486,7.915,8.201,12.378h0.039V0.3h2.326V17.668z"/>
<path fill="#FFFFFF" d="M77.312,0.3l5.411,17.369h-3.256l-1.327-4.745h-5.101l-1.477,4.745h-2.512L74.911,0.3H77.312z
	 M77.701,10.792c-0.617-2.283-1.227-4.391-1.909-7.07H75.75c-0.596,2.679-1.274,4.787-1.948,7.07H77.701z"/>
<polygon fill="#FFFFFF" points="85.371,17.668 85.371,2.629 80.93,2.629 80.93,0.3 92.712,0.3 92.712,2.629 88.275,2.629 
	88.275,17.668 "/>
<path fill="#FFFFFF" d="M109.417,9.731v7.166c-1.541,0.621-3.171,1.071-4.812,1.071c-4.973,0-8.119-3.978-8.119-9.082
	c0-4.738,3.125-8.886,8.201-8.886c1.587,0,3.171,0.596,4.115,1.337l-0.927,2.066c-0.78-0.496-1.993-0.924-3.103-0.924
	c-3.086,0-5.201,2.508-5.201,6.453c0,4.117,2.422,6.553,4.911,6.553c0.774,0,1.42-0.104,2.034-0.421V9.731H109.417z"/>
<polygon fill="#FFFFFF" points="119.439,2.627 114.613,2.627 114.613,7.394 119.343,7.394 119.343,9.729 114.613,9.729 
	114.613,15.333 120.324,15.333 120.324,17.667 111.72,17.667 111.72,0.299 119.439,0.299 "/>
<path fill="#FFFFFF" d="M120.827,8.734c0-4.866,3.032-8.732,7.162-8.732c4.138,0,7.178,3.866,7.178,8.732
	c0,5.187-2.754,9.232-7.178,9.232C123.57,17.967,120.827,13.921,120.827,8.734 M132.081,8.734c0-3.196-1.206-6.257-4.092-6.257
	c-2.875,0-4.084,3.061-4.084,6.257c0,3.325,1.067,6.749,4.084,6.749C131.007,15.483,132.081,12.06,132.081,8.734"/>
<path fill="#FFFFFF" d="M56.732,28.86c0-2.894,1.738-4.372,4.126-4.372c2.383,0,4.111,1.478,4.111,4.372v10.073l11.346-12.369
	c1.626-1.825,2.649-2.076,3.866-2.076c1.824,0,4.125,1.775,4.125,3.968c0,1.222-0.771,2.388-1.641,3.299l-9.817,9.873l10.749,11.643
	c1.258,1.381,2.274,2.45,2.274,3.973c0,2.645-2.034,4.071-4.321,4.071c-2.188,0-3.768-1.99-5.077-3.462L64.969,44.932v12.011
	c0,2.898-1.728,4.372-4.111,4.372c-2.388,0-4.126-1.474-4.126-4.372V28.86z"/>
<path fill="#FFFFFF" d="M92.583,21.842c2.597,0,4.735,2.086,4.735,4.729c0,2.644-2.139,4.73-4.735,4.73
	c-2.593,0-4.729-2.086-4.729-4.73C87.853,23.928,89.99,21.842,92.583,21.842 M88.62,37.759c0-2.286,1.626-4.115,3.963-4.115
	c2.336,0,3.978,1.829,3.978,4.115v19.436c0,2.285-1.642,4.115-3.978,4.115c-2.337,0-3.963-1.83-3.963-4.115V37.759z"/>
<path fill="#FFFFFF" d="M99.966,28.906c0-2.643,1.973-4.111,4.111-4.111h9.867c10.784,0,16.889,8.545,16.889,17.845
	c0,11.858-7.94,18.362-16.889,18.362h-9.867c-2.139,0-4.111-1.474-4.111-4.116V28.906z M108.193,53.378h4.377
	c6.417,0,9.413-4.434,9.413-10.738c0-6.104-3.052-10.216-9.055-10.216h-4.735V53.378z"/>
<path fill="#FFFFFF" d="M135.007,51.493c2.02,0,4.673,2.091,8.896,2.091c3.207,0,4.367-1.631,4.367-3.41
	c0-2.746-3.145-3.308-7.824-4.827c-4.269-1.375-8.696-3.211-8.696-9.771c0-7.88,6.151-11.597,13.013-11.597
	c6.611,0,10.277,2.28,10.277,5.44c0,2.24-1.477,3.865-3.666,3.865c-2.633,0-3.502-1.375-7.01-1.375
	c-2.245,0-3.764,1.177-3.764,2.956c0,2.081,2.025,2.337,7.727,4.223c4.474,1.473,8.8,3.764,8.8,10.631
	c0,8.339-6.152,12.104-13.832,12.104c-4.832,0-12.154-1.888-12.154-5.957C131.141,53.63,132.512,51.493,135.007,51.493"/>
</svg>
