<?xml version="1.0" encoding="utf-8"?>
<!-- Generator: Adobe Illustrator 16.0.0, SVG Export Plug-In . SVG Version: 6.00 Build 0)  -->
<!DOCTYPE svg PUBLIC "-//W3C//DTD SVG 1.1//EN" "http://www.w3.org/Graphics/SVG/1.1/DTD/svg11.dtd">
<svg version="1.1" id="Layer_1" xmlns="http://www.w3.org/2000/svg" xmlns:xlink="http://www.w3.org/1999/xlink" x="0px" y="0px"
	 width="139.9px" height="56.735px" viewBox="0 0 139.9 56.735" enable-background="new 0 0 139.9 56.735" xml:space="preserve">
<path fill="#FFFFFF" d="M18.07,51.14c-0.752-0.673-0.247-0.954-0.285-1.223c-0.489-2.064-2.135-3.318-1.288-3.996
	c-0.205-0.677-0.611-1.512-0.611-1.535c-2.557-1.474-4.743-3.855-5.112-4.2c-0.442-0.489-1.204-0.981-1.351-1.374
	C8.809,38.246,5.785,33.971,5.1,32.4l-1.23-0.173c-0.552-2.269-2.405-4.175-2.454-6.459c-0.021-0.864,0.392-2.702,0.539-3.073
	c0.147-0.366,0.861-0.98,0.861-0.98v-0.616c-2.668,0.08-1.896-0.193-2.359-1.229c-0.322-0.719-0.095-0.875,0.022-1.375
	c0.352-1.461,1.549-3.736,2.04-4.765c0.148-0.518,0.664-1.77,0.664-1.77c1.991-4.053,2.729-3.758,5.085-3.979l0.124-0.172
	c2.365-0.1,1.979-0.286,2.308-2.554c-0.344,0.146-0.441-0.713-0.441-0.713c-0.191-1.303,0.356-1.057,0.613-1.081
	c0.061-2.128,0.271-2.801,1.82-3.391H4.718C2.111,0.07,0,2.181,0,4.787v47.265c0,2.604,2.111,4.717,4.718,4.717h13.955
	C17.073,55.91,18.021,54.262,18.07,51.14 M6.708,53.501H5.123l-1.142-4.113L3.94,49.132H3.927v4.369H2.514v-7.064h1.596l1.122,3.88
	L5.283,50.6H5.3v-4.163h1.408V53.501z M9.624,53.501H7.266v-7.064h2.307c1.185,0,1.758,0.45,1.758,1.662
	c0,0.742-0.104,1.396-0.892,1.661v0.017c0.797,0.143,1.068,0.735,1.068,1.627C11.507,52.59,11.073,53.501,9.624,53.501
	 M14.637,53.501l-0.152-1.553h-1.141l-0.168,1.553h-1.628l1.311-7.064h2.158l1.326,7.064H14.637z"/>
<polygon fill="#FFFFFF" points="14.324,50.841 13.513,50.841 13.919,47.668 13.927,47.504 13.945,47.504 13.953,47.668 "/>
<path fill="#FFFFFF" d="M10.028,51.333c0,0.699-0.063,0.966-0.601,0.966H8.943v-1.92h0.519
	C9.966,50.379,10.028,50.848,10.028,51.333"/>
<path fill="#FFFFFF" d="M9.958,48.408c0,0.442-0.054,0.823-0.568,0.823H8.943v-1.594h0.51C9.853,47.637,9.958,47.913,9.958,48.408"
	/>
<path fill="#FFFFFF" d="M23.388,4.788v22.833c-0.135-0.345-0.311-0.669-0.547-0.985c0.002-0.629-0.682-0.622-0.866-0.857
	c-0.17-0.209,0.173-0.321-1.007-0.588c-0.222-0.122-0.394-1.856-0.394-1.856c-0.172-1.105-0.563-1.866-1.153-3.046
	c-0.301-0.6-0.441-2.481-0.763-3.439c0.178-4.389-1.225-5.662-2.355-6.381c-0.429-0.276-0.652-0.474-1.073-0.729l-0.02-0.195
	c-0.33-0.319-0.997-0.654-1.55-0.899c-0.161-0.172-0.079-0.548,0.031-0.683c0.367-0.05,0.857-0.883,1.279-1.747
	c0.309,0.021,0.421-0.298,0.53-0.467c0.335-0.556,0.699-1.035,0.232-1.356c1.071-1.925,0.383-3.229-0.193-3.277
	c-0.248-0.479-0.651-0.786-1.375-1.045h4.508C21.276,0.07,23.388,2.182,23.388,4.788"/>
<path fill="#FFFFFF" d="M23.391,30.712l-0.005,21.339c0,2.373-1.706,4.314-3.967,4.663h-0.043c2.064-1.255,0.783-3.629,0.388-5.031
	c-0.021-0.077,0.04-0.182,0.074-0.246c0.104-0.192-0.117-0.638-0.117-0.638c-0.245-0.22-0.313-1.383-0.446-1.916
	c-0.223-0.885,0.393-2.405,0.393-2.923c0-0.516-0.393-1.229-1.105-2.139c-0.173-0.196-0.692-4.627-1.155-5.746
	c-0.639-1.549-0.834-1.302-1.598-3.146c-0.59-1.303-0.122-3.219-1.45-7.666c0.008,0.023,0.299-0.27,0.299-0.27
	s-1.058-3.857-1.402-4.914c-0.345-1.056-0.959-1.13-0.959-1.13s0.005-0.429,0.036-0.54c0.05-0.172,1.28-3.387,1.39-3.489
	c0.006-0.072,1.784-1.284,1.818-1.105c0.146,0.788,0.835,4.791,1.128,5.429c0.295,0.64,1.327,2.605,1.806,3.82
	c-1.844,0.447-3.213,2.11-3.213,4.09c0,2.326,1.883,4.21,4.21,4.21C21.245,33.366,22.77,32.267,23.391,30.712"/>
<polygon fill="#FFFFFF" points="62.858,0.243 62.858,56.735 50.181,56.735 41.045,23.844 40.726,21.8 40.615,21.8 40.615,56.735 
	29.313,56.735 29.313,0.243 42.069,0.243 51.05,31.282 51.461,33.533 51.586,33.533 51.586,0.243 "/>
<path fill="#FFFFFF" d="M92.682,26.965v-0.141c6.302-2.122,7.141-7.347,7.141-13.284c0-9.698-4.594-13.297-14.061-13.297H67.317
	v56.492h18.865c11.587,0,15.045-7.285,15.045-16.769C101.228,32.837,99.054,28.097,92.682,26.965 M80.733,9.843h4.073
	c3.189,0,4.036,2.211,4.036,6.169c0,3.525-0.428,6.581-4.533,6.581h-3.576V9.843z M84.6,47.125h-3.866V31.77h4.146
	c4.038,0,4.531,3.762,4.531,7.628C89.41,44.997,88.917,47.125,84.6,47.125"/>
<path fill="#FFFFFF" d="M129.299,0.243h-17.255l-10.485,56.492h13.018l1.341-12.408h9.134l1.202,12.408H139.9L129.299,0.243z
	 M117.271,35.471l3.244-25.38l0.074-1.315h0.143l0.066,1.315l2.963,25.38H117.271z"/>
</svg>
