<?xml version="1.0" encoding="utf-8"?>
<!-- Generator: Adobe Illustrator 16.0.0, SVG Export Plug-In . SVG Version: 6.00 Build 0)  -->
<!DOCTYPE svg PUBLIC "-//W3C//DTD SVG 1.1//EN" "http://www.w3.org/Graphics/SVG/1.1/DTD/svg11.dtd">
<svg version="1.1" id="Layer_1" xmlns="http://www.w3.org/2000/svg" xmlns:xlink="http://www.w3.org/1999/xlink" x="0px" y="0px"
	 width="127.669px" height="90px" viewBox="0 0 127.669 90" enable-background="new 0 0 127.669 90" xml:space="preserve">
<path fill="#FFFFFF" d="M61.207,43.962c-3.823,0-6.922,3.052-6.922,6.817c0,3.765,3.099,6.816,6.922,6.816
	c3.823,0,6.922-3.052,6.922-6.816C68.129,47.014,65.03,43.962,61.207,43.962 M110.59,11.007H0V60.6l18.819,18.773h108.85v-51.11
	L110.59,11.007z M34.5,46.34h-9.83v22.973L11.2,55.851V20.812l13.47,0.001v12.399h9.83V46.34z M61.207,70.408
	c-4.359,0-8.5-1.31-11.78-3.647v2.552H38.141v-48.5h12.742v13.128c2.967-1.726,6.629-2.791,10.324-2.791
	c11.008,0,19.931,8.788,19.931,19.629C81.138,61.62,72.215,70.408,61.207,70.408 M117.87,56.591c0,7.818-6.594,12.722-16.746,12.722
	h-9.102l-10.194-9.846h18.567c2.269,0,3.072-0.695,3.072-1.706v-0.105c0-1.064-1.188-1.649-5.238-2.447
	c-8.478-1.702-15.93-4.095-15.93-11.966v-0.106c0-7.074,5.489-12.477,15.911-12.477h7.282l9.828,9.846H99.304
	c-1.891,0-2.603,0.557-2.603,1.461v0.106c0,1.011,1.026,1.649,5.022,2.393c9.666,1.756,16.146,4.521,16.146,12.02V56.591z"/>
</svg>
