<?xml version="1.0" encoding="utf-8"?>
<!-- Generator: Adobe Illustrator 16.0.0, SVG Export Plug-In . SVG Version: 6.00 Build 0)  -->
<!DOCTYPE svg PUBLIC "-//W3C//DTD SVG 1.1//EN" "http://www.w3.org/Graphics/SVG/1.1/DTD/svg11.dtd">
<svg version="1.1" id="Layer_1" xmlns="http://www.w3.org/2000/svg" xmlns:xlink="http://www.w3.org/1999/xlink" x="0px" y="0px"
	 width="127.669px" height="68.366px" viewBox="0 0 127.669 68.366" enable-background="new 0 0 127.669 68.366"
	 xml:space="preserve">
<path fill="#FFFFFF" d="M61.207,32.955c-3.823,0-6.922,3.052-6.922,6.817c0,3.765,3.099,6.816,6.922,6.816
	c3.823,0,6.922-3.052,6.922-6.816C68.129,36.007,65.03,32.955,61.207,32.955 M110.59,0H0v49.593l18.819,18.773h108.85v-51.11
	L110.59,0z M34.5,35.333h-9.83v22.973L11.2,44.844V9.805l13.47,0.001v12.399h9.83V35.333z M61.207,59.401
	c-4.359,0-8.5-1.31-11.78-3.647v2.552H38.141v-48.5h12.742v13.128c2.967-1.726,6.629-2.791,10.324-2.791
	c11.008,0,19.931,8.788,19.931,19.629C81.138,50.613,72.215,59.401,61.207,59.401 M117.87,45.584
	c0,7.818-6.594,12.722-16.746,12.722h-9.102L81.828,48.46h18.567c2.269,0,3.072-0.695,3.072-1.706v-0.105
	c0-1.064-1.188-1.649-5.238-2.447c-8.478-1.702-15.93-4.095-15.93-11.966v-0.106c0-7.074,5.489-12.477,15.911-12.477h7.282
	l9.828,9.846H99.304c-1.891,0-2.603,0.557-2.603,1.461v0.106c0,1.011,1.026,1.649,5.022,2.393
	c9.666,1.756,16.146,4.521,16.146,12.02V45.584z"/>
</svg>
