<?xml version="1.0" encoding="utf-8"?>
<!-- Generator: Adobe Illustrator 16.0.0, SVG Export Plug-In . SVG Version: 6.00 Build 0)  -->
<!DOCTYPE svg PUBLIC "-//W3C//DTD SVG 1.1//EN" "http://www.w3.org/Graphics/SVG/1.1/DTD/svg11.dtd">
<svg version="1.1" id="Layer_1" xmlns="http://www.w3.org/2000/svg" xmlns:xlink="http://www.w3.org/1999/xlink" x="0px" y="0px"
	 width="86.071px" height="87.06px" viewBox="0 0 86.071 87.06" enable-background="new 0 0 86.071 87.06" xml:space="preserve">
<path fill="#FFFFFF" d="M28.859,30.527h7.469c2.121,0,3.181,0.607,4.242,2.379l8.714,13.723h0.299V30.527h7.823h0.967h25.744
	C78.65,12.838,62.326,0,43.035,0C23.746,0,7.421,12.838,1.954,30.527h25.938H28.859z M85.567,36.855h-9.45v25.721h-8.571V36.855
	h-9.803v25.721h-5.721c-2.121,0-3.136-0.606-4.241-2.378L36.689,43.402h-0.179v19.174h-8.327V36.855h-9.767v25.721H9.696V36.855
	H0.504C0.173,39.031,0,41.26,0,43.53C0,67.571,19.269,87.06,43.035,87.06c23.768,0,43.036-19.488,43.036-43.529
	C86.071,41.26,85.898,39.031,85.567,36.855"/>
</svg>
