<?xml version="1.0" encoding="utf-8"?>
<!-- Generator: Adobe Illustrator 16.0.0, SVG Export Plug-In . SVG Version: 6.00 Build 0)  -->
<!DOCTYPE svg PUBLIC "-//W3C//DTD SVG 1.1//EN" "http://www.w3.org/Graphics/SVG/1.1/DTD/svg11.dtd">
<svg version="1.1" id="Layer_1" xmlns="http://www.w3.org/2000/svg" xmlns:xlink="http://www.w3.org/1999/xlink" x="0px" y="0px"
	 width="86.071px" height="90px" viewBox="0 0 86.071 90" enable-background="new 0 0 86.071 90" xml:space="preserve">
<path fill="#FFFFFF" d="M28.859,32.187h7.469c2.121,0,3.181,0.607,4.242,2.379l8.714,13.723h0.299V32.187h7.823h0.967h25.744
	C78.65,14.498,62.326,1.66,43.035,1.66c-19.289,0-35.614,12.838-41.081,30.527h25.938H28.859z M85.567,38.515h-9.45v25.721h-8.571
	V38.515h-9.803v25.721h-5.721c-2.121,0-3.136-0.606-4.241-2.378L36.689,45.063h-0.179v19.173h-8.327V38.515h-9.767v25.721H9.696
	V38.515H0.504C0.173,40.691,0,42.92,0,45.19C0,69.231,19.269,88.72,43.035,88.72c23.768,0,43.036-19.488,43.036-43.529
	C86.071,42.92,85.898,40.691,85.567,38.515"/>
</svg>
