<?xml version="1.0" encoding="utf-8"?>
<!-- Generator: Adobe Illustrator 16.0.0, SVG Export Plug-In . SVG Version: 6.00 Build 0)  -->
<!DOCTYPE svg PUBLIC "-//W3C//DTD SVG 1.1//EN" "http://www.w3.org/Graphics/SVG/1.1/DTD/svg11.dtd">
<svg version="1.1" id="Layer_1" xmlns="http://www.w3.org/2000/svg" xmlns:xlink="http://www.w3.org/1999/xlink" x="0px" y="0px"
	 width="37px" height="30px" viewBox="0 0 37 30" enable-background="new 0 0 37 30" xml:space="preserve">
<g display="none">
	<g display="inline">
		<path fill="#FFFFFF" d="M12.593,2.319C8.69,4.16,5.779,7.769,4.874,12.117c1.215,0.008,6.688-0.08,12.858-1.729
			C15.537,6.46,13.17,3.126,12.593,2.319z M19.488,15.142c0.182-0.065,0.375-0.117,0.556-0.169c-0.349-0.805-0.735-1.61-1.149-2.402
			c-6.586,1.978-12.99,2.028-14.31,2.015c-0.006,0.139-0.008,0.279-0.008,0.42c0,3.583,1.337,6.848,3.54,9.325
			C8.845,23.15,12.675,17.367,19.488,15.142z M20.909,17.35c-7.42,2.602-10.403,7.59-10.987,8.682
			C12.286,27.891,15.263,29,18.501,29c1.944,0,3.793-0.4,5.473-1.125c-0.254-1.463-1.093-5.629-2.975-10.551
			C20.974,17.336,20.935,17.35,20.909,17.35z M27.762,4.541C25.303,2.338,22.06,1,18.501,1c-1.104,0-2.178,0.128-3.208,0.374
			c0.619,0.843,3.004,4.166,5.164,8.158C25.095,7.781,27.255,5.211,27.762,4.541z M23.633,16.66c1.734,4.783,2.5,8.74,2.705,9.912
			c3.098-2.125,5.297-5.475,5.912-9.354C31.33,16.943,27.712,16.016,23.633,16.66z M22.484,13.7c0.104,0.247,0.206,0.493,0.31,0.727
			c4.314-0.548,8.599,0.217,9.629,0.416c-0.032-3.282-1.19-6.293-3.104-8.662c-0.559,0.714-2.941,3.481-7.776,5.467
			C21.864,12.324,22.188,13.012,22.484,13.7z"/>
	</g>
</g>
<g display="none">
	<g display="inline">
		<path fill="#FFFFFF" d="M24.145,1h-11.29C8.534,1,5,4.568,5,8.928v12.144C5,25.432,8.534,29,12.854,29h11.29
			C28.465,29,32,25.432,32,21.072V8.928C32,4.568,28.465,1,24.145,1z M29.924,21.072c0,1.549-0.604,3.012-1.699,4.117
			c-1.096,1.106-2.545,1.716-4.08,1.716h-11.29c-1.535,0-2.983-0.609-4.079-1.716c-1.097-1.105-1.7-2.568-1.7-4.117V8.928
			c0-1.549,0.604-3.012,1.7-4.118c1.096-1.106,2.544-1.715,4.079-1.715h11.29c1.535,0,2.984,0.609,4.08,1.715
			c1.096,1.106,1.699,2.568,1.699,4.118V21.072z M18.542,7.387c-4.106,0-7.436,3.36-7.436,7.505c0,4.145,3.329,7.504,7.436,7.504
			c4.105,0,7.435-3.359,7.435-7.504C25.977,10.747,22.647,7.387,18.542,7.387z M18.506,19.813c-2.688,0-4.869-2.201-4.869-4.914
			c0-2.714,2.181-4.915,4.869-4.915s4.868,2.2,4.868,4.915C23.374,17.611,21.194,19.813,18.506,19.813z M26.096,5.494
			c-0.972,0-1.76,0.795-1.76,1.777s0.788,1.777,1.76,1.777c0.973,0,1.761-0.796,1.761-1.777S27.068,5.494,26.096,5.494z"/>
	</g>
</g>
<path fill="#FFFFFF" d="M35.5,4.314c-1.251,0.563-2.596,0.942-4.006,1.113c1.439-0.875,2.546-2.26,3.066-3.91
	c-1.348,0.81-2.841,1.398-4.43,1.715C28.858,1.859,27.046,1,25.039,1c-3.852,0-6.975,3.165-6.975,7.068
	c0,0.555,0.062,1.094,0.18,1.611C12.447,9.385,7.308,6.57,3.867,2.295C3.267,3.338,2.923,4.553,2.923,5.848
	c0,2.453,1.231,4.615,3.103,5.883c-1.144-0.036-2.219-0.354-3.159-0.883c-0.001,0.029-0.001,0.059-0.001,0.088
	c0,3.426,2.404,6.281,5.596,6.932c-0.585,0.161-1.201,0.248-1.838,0.248c-0.449,0-0.886-0.045-1.313-0.127
	c0.888,2.808,3.464,4.852,6.517,4.908c-2.388,1.896-5.396,3.025-8.663,3.025c-0.563,0-1.118-0.033-1.664-0.098
	C4.587,27.83,8.254,29,12.192,29c12.831,0,19.847-10.771,19.847-20.111c0-0.307-0.006-0.611-0.02-0.915
	C33.382,6.977,34.564,5.732,35.5,4.314z"/>
</svg>
